HIERARCHY
ROOT Hips
{
	OFFSET 0.000000 0.000000 0.000000
	CHANNELS 6 Xposition Yposition Zposition Zrotation Yrotation Xrotation 
	JOINT LHipJoint
	{
		OFFSET 0.000000 0.000000 0.000000
		CHANNELS 3 Zrotation Yrotation Xrotation
		JOINT LeftUpLeg
		{
			OFFSET 1.363060 -1.794630 0.839290
			CHANNELS 3 Zrotation Yrotation Xrotation
			JOINT LeftLeg
			{
				OFFSET 2.448110 -6.726130 0.000000
				CHANNELS 3 Zrotation Yrotation Xrotation
				JOINT LeftFoot
				{
					OFFSET 2.562200 -7.039590 0.000000
					CHANNELS 3 Zrotation Yrotation Xrotation
					JOINT LeftToeBase
					{
						OFFSET 0.157640 -0.433110 2.322550
						CHANNELS 3 Zrotation Yrotation Xrotation
						End Site
						{
							OFFSET 0.000000 0.000000 0.000000
						}
					}
				}
			}
		}
	}
	JOINT RHipJoint
	{
		OFFSET 0.000000 0.000000 0.000000
		CHANNELS 3 Zrotation Yrotation Xrotation
		JOINT RightUpLeg
		{
			OFFSET -1.305520 -1.794630 0.839290
			CHANNELS 3 Zrotation Yrotation Xrotation
			JOINT RightLeg
			{
				OFFSET -2.542530 -6.985550 0.000000
				CHANNELS 3 Zrotation Yrotation Xrotation
				JOINT RightFoot
				{
					OFFSET -2.568260 -7.056230 0.000000
					CHANNELS 3 Zrotation Yrotation Xrotation
					JOINT RightToeBase
					{
						OFFSET -0.164730 -0.452590 2.363150
						CHANNELS 3 Zrotation Yrotation Xrotation
						End Site
						{
							OFFSET 0.000000 0.000000 0.000000
						}
					}
				}
			}
		}
	}
}
MOTION
Frames: 11
Frame Time: 0.008333
-4.947787 16.986455 0.589116 166.786016 -85.044394 -149.961331 -10.155670 2.191622 0.825233 -14.493847 -0.047756 -16.356522 -2.017854 0.676024 27.676352 1.674490 7.855078 -13.644988 -1.015700 0.000000 -40.303400 10.080726 -0.092290 1.542256 4.422555 6.724040 -37.024107 -0.541017 -3.552412 58.836197 -2.553826 -11.074640 -13.700650 0.814800 0.000000 -28.951000
-5.190776 17.101931 0.580050 171.132074 -85.082347 -154.415081 -10.318364 2.343161 0.729517 -13.782608 0.736178 -14.746785 -1.924225 0.655811 25.766554 1.483864 7.599931 -10.684704 -0.514000 -0.000001 -44.191901 9.823179 -0.074524 1.653715 5.053734 7.053568 -36.844079 -0.304609 -3.318187 55.280174 -2.535978 -10.788780 -12.929248 0.612200 -0.000000 -29.330400
-5.433444 17.219085 0.569223 175.434052 -85.097897 -158.864113 -10.478811 2.505577 0.606617 -13.046396 1.614813 -13.155638 -1.826497 0.660238 23.877337 1.287258 7.217860 -7.416463 -0.014701 -0.000000 -48.253500 9.578106 -0.084257 1.749842 5.693152 7.303566 -36.454564 -0.053599 -3.067111 51.361811 -2.475134 -10.358646 -11.870541 0.351101 -0.000000 -30.039700
-5.675911 17.335823 0.556796 179.636734 -85.095392 -163.242624 -10.636850 2.674838 0.461281 -12.284708 2.567764 -11.598217 -1.728556 0.687297 22.031114 1.093888 6.683594 -3.901435 0.438100 -0.000000 -52.230600 9.347753 -0.122313 1.837129 6.337062 7.481849 -35.870417 0.213716 -2.796934 47.098497 -2.366148 -9.786439 -10.514346 0.043600 0.000000 -31.095200
-5.918370 17.449896 0.542783 -176.341421 -85.082039 -167.453676 -10.790543 2.845893 0.301906 -11.505751 3.557656 -10.096938 -1.633193 0.733226 20.261742 0.915763 5.990701 -0.224475 0.795201 0.000000 -55.856200 9.135437 -0.186783 1.924691 6.974109 7.598399 -35.123157 0.498824 -2.505000 42.525135 -2.207191 -9.087410 -8.864389 -0.291300 -0.000000 -32.483800
-6.161051 17.559026 0.527187 -172.604047 -85.067518 -171.377498 -10.936629 3.013145 0.138147 -10.727829 4.537724 -8.675222 -1.542161 0.792738 18.609377 0.765332 5.155699 3.510859 1.014800 0.000000 -58.897300 8.945361 -0.272446 2.021601 7.585725 7.662990 -34.254677 0.801987 -2.188669 37.696273 -2.000240 -8.287525 -6.938824 -0.630300 0.000000 -34.158899
-6.404445 17.661145 0.509677 -169.354647 -85.067121 -174.786804 -11.070901 3.172140 -0.015875 -9.987521 5.448469 -7.365482 -1.456417 0.858995 17.120317 0.653357 4.228127 7.185710 1.076300 0.000000 -61.173100 8.782478 -0.370471 2.137531 8.139542 7.679542 -33.329812 1.119899 -1.846428 32.696197 -1.751201 -7.416585 -4.774214 -0.948000 -0.000000 -36.037899
-6.648506 17.754471 0.490016 -166.774693 -85.093687 -177.494282 -11.189766 3.319524 -0.151247 -9.322116 6.245027 -6.182623 -1.376347 0.926093 15.833815 0.585604 3.284318 10.678723 0.990900 -0.000001 -62.588800 8.651267 -0.468607 2.273207 8.608415 7.643803 -32.403935 1.445630 -1.480212 27.633378 -1.469086 -6.502165 -2.421457 -1.220200 -0.000000 -38.018201
-6.893337 17.837659 0.468200 -165.029620 -85.155905 -179.333844 -11.290750 3.454448 -0.262346 -8.766237 6.898363 -5.128000 -1.301441 0.989534 14.781201 0.562335 2.425832 13.877814 0.805600 -0.000000 -63.133700 8.555086 -0.554386 2.419971 8.976094 7.536647 -31.526134 1.769195 -1.097777 22.641694 -1.164485 -5.558657 0.053623 -1.424300 0.000000 -39.993501
-7.138660 17.909851 0.444246 -164.288899 -85.259304 179.853896 -11.372388 3.577929 -0.344267 -8.348539 7.392448 -4.202686 -1.230181 1.046863 13.991623 0.579491 1.772419 16.685847 0.598600 0.000000 -62.870000 8.495083 -0.617742 2.562316 9.243317 7.321030 -30.747584 2.079712 -0.713599 17.873087 -0.848052 -4.582407 2.576397 -1.539300 -0.000000 -41.883100
-7.384249 17.970633 0.418513 -164.610468 -85.398928 -179.890243 -11.434980 3.691496 -0.398596 -8.075875 7.738513 -3.394403 -1.159554 1.098001 13.486327 0.630746 1.439184 19.034519 0.462700 0.000000 -61.923800 8.468751 -0.654666 2.678630 9.439519 6.954253 -30.097207 2.369467 -0.346584 13.473139 -0.529633 -3.556549 5.071970 -1.546301 0.000000 -43.645800
